# xmcd CD database file
#
# Track frame offsets:
#	150
#	12437
#	24268
#	38333
#	51746
#	66287
#	79332
#	92869
#	105291
#	118351
#	131844
#	144458
#	158528
#	172111
#	186189
#	198864
#	211576
#	224898
#	237762
#
# Disc length: 3320 seconds
#
# Revision: 3
# Processed by: cddbd v1.5.2PL0 Copyright (c) Steve Scherf et al.
# Submitted via: CDex 1.51
#
DISCID=100cf613
DTITLE=Billie Holiday - Billy Holiday  [CD 06-10]
DYEAR=1938
DGENRE=Jazz
TTITLE0=Here It Is Tomorrow Again
TTITLE1=Say It With A Kiss
TTITLE2=April In My Heart
TTITLE3=I'll Never Fail You
TTITLE4=They Say
TTITLE5=You're So Desirable
TTITLE6=You're Gonna See A Lot Of Me
TTITLE7=Hello, My Darling
TTITLE8=Let's Dream In The Moonlight
TTITLE9=That's All I Ask Of You
TTITLE10=Dream Of Life
TTITLE11=What Shall I Say
TTITLE12=It's Easy To Blame The Weather
TTITLE13=More Than You Know
TTITLE14=Sugar
TTITLE15=You're Too Lovely To Last
TTITLE16=Under A Blue Jungle Moon
TTITLE17=Everything Happens For The Best
TTITLE18=Why Did I Always Depend On You
EXTD=Volume 6 of a 10-CD set.
EXTT0=
EXTT1=
EXTT2=
EXTT3=
EXTT4=
EXTT5=
EXTT6=
EXTT7=
EXTT8=
EXTT9=
EXTT10=
EXTT11=
EXTT12=
EXTT13=
EXTT14=
EXTT15=
EXTT16=
EXTT17=
EXTT18=
PLAYORDER=
